<?xml version="1.0" standalone="no"?>
<!DOCTYPE svg PUBLIC "-//W3C//DTD SVG 20010904//EN"
 "http://www.w3.org/TR/2001/REC-SVG-20010904/DTD/svg10.dtd">
<svg version="1.0" xmlns="http://www.w3.org/2000/svg"
 width="800.000000pt" height="1129.000000pt" viewBox="0 0 800.000000 1129.000000"
 preserveAspectRatio="xMidYMid meet">

<g transform="translate(0.000000,1129.000000) scale(0.100000,-0.100000)"
fill="#000000" stroke="none">
<path d="M689 10878 c-187 -302 -343 -667 -419 -983 -43 -178 -60 -315 -60
-481 1 -420 126 -804 393 -1204 139 -208 196 -275 884 -1027 293 -320 533
-584 533 -587 0 -2 -53 -36 -117 -74 -234 -138 -490 -317 -683 -475 -115 -95
-410 -392 -494 -497 -461 -581 -615 -1212 -475 -1950 28 -147 99 -418 154
-590 45 -139 79 -230 248 -671 143 -374 235 -692 257 -891 18 -160 -4 -282
-66 -375 -40 -58 -80 -88 -175 -133 -63 -29 -241 -80 -280 -80 -18 0 -19 -11
-19 -195 l0 -195 1045 0 1045 0 23 38 c98 159 153 407 164 737 19 603 -122
1016 -647 1900 -387 651 -536 1014 -579 1407 -31 282 5 493 122 722 149 293
463 583 849 786 l48 25 24 -25 c65 -68 3572 -4039 3646 -4128 349 -423 548
-798 660 -1241 31 -125 70 -336 70 -382 l0 -29 243 0 242 0 96 148 c322 491
452 840 466 1247 16 460 -86 836 -325 1200 -150 230 -189 277 -812 985 -574
653 -538 611 -616 725 -174 258 -249 500 -275 893 -47 712 288 1757 879 2742
41 69 78 128 81 132 3 4 35 3 71 -2 88 -14 425 -13 541 0 144 16 368 61 383
76 16 16 41 145 57 294 16 144 6 501 -16 600 -65 292 -286 491 -690 623 -143
47 -127 42 -580 148 -492 115 -607 155 -760 264 -176 126 -255 282 -310 618
l-6 37 -234 0 -235 0 -25 -50 c-81 -160 -165 -407 -209 -617 -42 -201 -57
-337 -63 -588 -4 -214 -3 -250 15 -335 35 -170 92 -283 202 -403 173 -188 430
-317 903 -453 106 -30 196 -56 200 -57 4 -1 -7 -25 -25 -52 -381 -594 -758
-1560 -973 -2496 -26 -112 -47 -205 -48 -205 -2 -2 -2743 3152 -2945 3389
-290 338 -510 671 -627 952 -89 210 -152 479 -175 740 -7 72 -14 140 -16 153
l-4 22 -240 0 -239 0 -82 -132z"/>
</g>
</svg>
